<mxfile host="app.diagrams.net" modified="2023-12-10T16:38:47.647Z" agent="Mozilla/5.0 (Windows NT 10.0; Win64; x64) AppleWebKit/537.36 (KHTML, like Gecko) Chrome/118.0.0.0 Safari/537.36 OPR/104.0.0.0" etag="tTEbxp0Sy8EruiPwWDH9" version="22.1.7" type="device">
  <diagram name="Page-1" id="LabQbAWAoYmEHPNMl4QD">
    <mxGraphModel dx="1521" dy="838" grid="1" gridSize="10" guides="1" tooltips="1" connect="1" arrows="1" fold="1" page="1" pageScale="1" pageWidth="850" pageHeight="1100" math="0" shadow="0">
      <root>
        <mxCell id="0" />
        <mxCell id="1" parent="0" />
        <mxCell id="jPKUjtmAMkBkqkPHHaoQ-2" value="&lt;font style=&quot;font-size: 17px;&quot;&gt;Controller&lt;/font&gt;" style="rounded=1;whiteSpace=wrap;html=1;fillColor=#d5e8d4;strokeColor=#82b366;" vertex="1" parent="1">
          <mxGeometry x="240" y="430" width="120" height="80" as="geometry" />
        </mxCell>
        <mxCell id="jPKUjtmAMkBkqkPHHaoQ-3" value="&lt;span style=&quot;font-size: 17px;&quot;&gt;Service&lt;/span&gt;" style="rounded=1;whiteSpace=wrap;html=1;fillColor=#d5e8d4;strokeColor=#82b366;" vertex="1" parent="1">
          <mxGeometry x="400" y="430" width="120" height="80" as="geometry" />
        </mxCell>
        <mxCell id="jPKUjtmAMkBkqkPHHaoQ-5" value="&lt;font style=&quot;font-size: 17px;&quot;&gt;Database&lt;/font&gt;" style="image;html=1;image=img/lib/clip_art/computers/Database_128x128.png" vertex="1" parent="1">
          <mxGeometry x="720" y="415" width="120" height="110" as="geometry" />
        </mxCell>
        <mxCell id="jPKUjtmAMkBkqkPHHaoQ-6" value="" style="endArrow=classic;startArrow=classic;html=1;rounded=0;exitX=1;exitY=0.5;exitDx=0;exitDy=0;entryX=0;entryY=0.5;entryDx=0;entryDy=0;" edge="1" parent="1" source="jPKUjtmAMkBkqkPHHaoQ-2" target="jPKUjtmAMkBkqkPHHaoQ-3">
          <mxGeometry width="50" height="50" relative="1" as="geometry">
            <mxPoint x="400" y="550" as="sourcePoint" />
            <mxPoint x="450" y="500" as="targetPoint" />
          </mxGeometry>
        </mxCell>
        <mxCell id="jPKUjtmAMkBkqkPHHaoQ-8" value="" style="endArrow=classic;startArrow=classic;html=1;rounded=0;exitX=1;exitY=0.5;exitDx=0;exitDy=0;" edge="1" parent="1" source="jPKUjtmAMkBkqkPHHaoQ-4" target="jPKUjtmAMkBkqkPHHaoQ-5">
          <mxGeometry width="50" height="50" relative="1" as="geometry">
            <mxPoint x="570" y="469.5" as="sourcePoint" />
            <mxPoint x="670" y="590" as="targetPoint" />
          </mxGeometry>
        </mxCell>
        <mxCell id="jPKUjtmAMkBkqkPHHaoQ-11" value="&lt;font style=&quot;font-size: 17px;&quot;&gt;Thymeleaf&lt;/font&gt;" style="shape=image;html=1;verticalAlign=top;verticalLabelPosition=bottom;labelBackgroundColor=#ffffff;imageAspect=0;aspect=fixed;image=https://cdn1.iconfinder.com/data/icons/seo-and-web-development-6/32/Web_website_favorite_site_star-128.png" vertex="1" parent="1">
          <mxGeometry x="245" y="560" width="110" height="110" as="geometry" />
        </mxCell>
        <mxCell id="jPKUjtmAMkBkqkPHHaoQ-12" value="&lt;font color=&quot;#050a0f&quot; style=&quot;font-size: 17px;&quot;&gt;Web Browser&lt;/font&gt;" style="image;aspect=fixed;perimeter=ellipsePerimeter;html=1;align=center;shadow=0;dashed=0;fontColor=#4277BB;labelBackgroundColor=default;fontSize=12;spacingTop=3;image=img/lib/ibm/users/browser.svg;" vertex="1" parent="1">
          <mxGeometry x="20" y="485" width="130" height="130" as="geometry" />
        </mxCell>
        <mxCell id="jPKUjtmAMkBkqkPHHaoQ-13" value="" style="endArrow=classic;startArrow=classic;html=1;rounded=0;exitX=1;exitY=0.5;exitDx=0;exitDy=0;" edge="1" parent="1" source="jPKUjtmAMkBkqkPHHaoQ-3" target="jPKUjtmAMkBkqkPHHaoQ-4">
          <mxGeometry width="50" height="50" relative="1" as="geometry">
            <mxPoint x="570" y="469.5" as="sourcePoint" />
            <mxPoint x="690" y="470" as="targetPoint" />
          </mxGeometry>
        </mxCell>
        <mxCell id="jPKUjtmAMkBkqkPHHaoQ-4" value="&lt;span style=&quot;font-size: 17px;&quot;&gt;Repository&lt;/span&gt;" style="rounded=1;whiteSpace=wrap;html=1;fillColor=#d5e8d4;strokeColor=#82b366;" vertex="1" parent="1">
          <mxGeometry x="560" y="430" width="120" height="80" as="geometry" />
        </mxCell>
        <mxCell id="jPKUjtmAMkBkqkPHHaoQ-15" value="" style="endArrow=classic;html=1;rounded=0;exitX=0.5;exitY=1;exitDx=0;exitDy=0;entryX=0.5;entryY=0;entryDx=0;entryDy=0;" edge="1" parent="1" source="jPKUjtmAMkBkqkPHHaoQ-2" target="jPKUjtmAMkBkqkPHHaoQ-11">
          <mxGeometry width="50" height="50" relative="1" as="geometry">
            <mxPoint x="400" y="450" as="sourcePoint" />
            <mxPoint x="450" y="400" as="targetPoint" />
          </mxGeometry>
        </mxCell>
        <mxCell id="jPKUjtmAMkBkqkPHHaoQ-16" value="" style="endArrow=classic;html=1;rounded=0;exitX=1;exitY=0.5;exitDx=0;exitDy=0;entryX=0;entryY=0.5;entryDx=0;entryDy=0;" edge="1" parent="1" source="jPKUjtmAMkBkqkPHHaoQ-12" target="jPKUjtmAMkBkqkPHHaoQ-2">
          <mxGeometry width="50" height="50" relative="1" as="geometry">
            <mxPoint x="400" y="450" as="sourcePoint" />
            <mxPoint x="450" y="400" as="targetPoint" />
          </mxGeometry>
        </mxCell>
        <mxCell id="jPKUjtmAMkBkqkPHHaoQ-17" value="" style="endArrow=classic;html=1;rounded=0;exitX=0;exitY=0.5;exitDx=0;exitDy=0;entryX=1;entryY=0.5;entryDx=0;entryDy=0;" edge="1" parent="1" source="jPKUjtmAMkBkqkPHHaoQ-11" target="jPKUjtmAMkBkqkPHHaoQ-12">
          <mxGeometry width="50" height="50" relative="1" as="geometry">
            <mxPoint x="140" y="790" as="sourcePoint" />
            <mxPoint x="180" y="630" as="targetPoint" />
          </mxGeometry>
        </mxCell>
      </root>
    </mxGraphModel>
  </diagram>
</mxfile>
